<?xml version="1.0" encoding="UTF-8" standalone="no"?><!DOCTYPE svg PUBLIC "-//W3C//DTD SVG 1.1//EN" "http://www.w3.org/Graphics/SVG/1.1/DTD/svg11.dtd">
<svg class="brand" width="100%" height="100%" viewBox="0 0 256 256" version="1.1" xmlns="http://www.w3.org/2000/svg" xmlns:xlink="http://www.w3.org/1999/xlink" xml:space="preserve" xmlns:serif="http://www.serif.com/" style="fill-rule:evenodd;clip-rule:evenodd;stroke-linejoin:round;stroke-miterlimit:2;">
<path class="brand-secondary" d="M129.792,43.72l9.223,-21.577l5.342,0l72.047,172.18c5.801,13.839 11.067,22.82 15.799,26.941c4.731,4.122 11.321,6.437 19.767,6.945l-0,5.648l-23.963,0l-0.056,-9.29c-0,0 -16.93,-1.719 -20.918,-6.269c-4.731,-4.121 -9.04,-11.555 -14.841,-25.394l-62.4,-149.184Zm-53.46,125.076l14.389,0.104l-12.153,28.323c-3.459,8.039 -5.189,14.043 -5.189,18.012c0,3.154 1.501,5.927 4.503,8.319c3.001,2.391 9.489,3.943 19.461,4.655l0,5.648l-23.894,0l-0.316,-9.572c-9.973,-0.712 -17.419,-1.306 -20.421,-3.697c-0.404,-0.322 -0.782,-0.652 -1.132,-0.988c0.119,-0.102 0.233,-0.205 0.342,-0.309c5.19,-4.885 7.973,-11.841 14.282,-26.8l10.128,-23.695Zm40.475,-60.729l-17.722,41.151l-14.329,-0.131l24.825,-58.081l7.226,17.061Z" style="fill-rule:nonzero;"/>
<path class="brand-primary" d="M144.614,164.558l-80.137,-0l-14.043,32.665c-3.46,8.039 -5.19,14.043 -5.19,18.012c-0,3.155 1.501,5.928 4.503,8.319c3.002,2.392 9.489,3.943 19.462,4.656l-0,5.648l-65.179,-0l0,-5.648c8.65,-1.527 14.247,-3.511 16.791,-5.953c5.19,-4.885 10.939,-14.807 17.249,-29.766l72.81,-170.349l5.343,0l72.047,172.181c5.8,13.84 11.066,22.82 15.798,26.942c4.732,4.121 11.321,6.436 19.768,6.945l-0,5.648l-81.664,-0l-0,-5.648c8.243,-0.407 13.814,-1.781 16.714,-4.122c2.9,-2.34 4.351,-5.189 4.351,-8.548c-0,-4.477 -2.036,-11.55 -6.106,-21.217l-12.517,-29.765Zm-4.274,-11.296l-35.108,-83.648l-36.023,83.648l71.131,0Z" style="fill-rule:nonzero;"/>
</svg>