<svg width="100%" height="100%" viewBox="0 0 800 800" version="1.1" xmlns="http://www.w3.org/2000/svg" xmlns:xlink="http://www.w3.org/1999/xlink">
<path d="M400,329.288l-314.652,-314.653c-19.514,-19.513 -51.199,-19.513 -70.713,0c-19.513,19.514 -19.513,51.199 0,70.713l314.653,314.652l-314.653,314.652c-19.513,19.514 -19.513,51.199 0,70.713c19.514,19.513 51.199,19.513 70.713,-0l314.652,-314.653l314.652,314.653c19.514,19.513 51.199,19.513 70.713,-0c19.513,-19.514 19.513,-51.199 -0,-70.713l-314.653,-314.652l314.653,-314.652c19.513,-19.514 19.513,-51.199 -0,-70.713c-19.514,-19.513 -51.199,-19.513 -70.713,0l-314.652,314.653Z"/>
</svg>